<svg width="40" height="42" viewBox="0 0 40 42" fill="none" xmlns="http://www.w3.org/2000/svg">
<g clip-path="url(#clip0_55_133)">
<path d="M20.0007 42.0014C31.0249 42.0014 39.9617 32.5991 39.9617 21.0007C39.9617 9.40233 31.0249 0 20.0007 0C8.97648 0 0.0396118 9.40233 0.0396118 21.0007C0.0396118 32.5991 8.97648 42.0014 20.0007 42.0014Z" fill="#F55403"/>
<path d="M0.517776 20.3302C0.514161 20.2707 0.510476 20.1987 0.50738 20.1147C0.496988 19.8331 0.493241 19.4181 0.520965 18.8951C0.576435 17.8487 0.757728 16.3729 1.26211 14.6693C2.26823 11.271 4.56295 6.95327 9.74323 3.31671L9.76362 3.30434C9.78588 3.29093 9.82015 3.27055 9.86598 3.24399C9.95767 3.19088 10.0956 3.11309 10.2763 3.01709C10.6378 2.82503 11.1698 2.56035 11.8448 2.2744C13.196 1.70201 15.1131 1.04723 17.3763 0.71623C21.8476 0.0622879 27.672 0.668521 33.194 5.69981V5.71004L33.3663 5.8593L33.3664 5.85937L33.3666 5.85958L33.3691 5.86177L33.3815 5.87275C33.393 5.88299 33.4109 5.89904 33.4346 5.92083C33.4822 5.96443 33.5534 6.03101 33.6446 6.12001C33.8272 6.29805 34.0898 6.56563 34.4039 6.91839C35.0325 7.6243 35.8652 8.669 36.6749 10.0176C38.2635 12.6636 39.7566 16.4666 39.4629 21.1773C29.1926 26.5324 20.6757 27.2618 14.1163 26.1824C7.64595 25.1177 3.04379 22.2865 0.517776 20.3302Z" fill="#FFFFF1" stroke="#D9D9D9"/>
<path d="M17.365 18.065C17.4101 18.0623 17.4347 18.0595 17.4347 18.0595C18.9294 18.0166 21.0323 15.7668 21.0323 15.7668C22.3549 14.2803 23.381 14.6204 23.381 14.6204C26.2504 15.0795 25.7708 20.7463 25.7708 20.7463L22.5899 22.8689L14.1991 23.5257L14.2797 16.2784C15.821 18.0111 16.9414 18.0968 17.365 18.065Z" fill="#F55403"/>
<path d="M14.3659 8.71305L22.3536 8.19727L25.6424 10.0862L25.5631 13.1878L24.4086 14.1019C22.4096 12.8075 20.7181 14.814 20.7181 14.814C19.2137 16.2742 18.3447 16.7886 18.3447 16.7886C17.2503 17.4358 16.205 16.5771 16.205 16.5771L14.2948 14.9523L14.3645 8.71029L14.3659 8.71305Z" fill="#F55403"/>
<path d="M26.4212 3.4819C27.2301 3.2966 34.5483 7.16293 35.4897 13.6621C35.4897 13.6621 35.2683 14.9661 34.0714 14.0479C32.2214 10.6877 30.1718 7.31227 27.297 5.43027C27.297 5.43027 25.1956 3.57178 26.4212 3.4819Z" fill="#F55403"/>
<path d="M35.972 18.4384C36.7395 18.4384 37.3616 17.8087 37.3616 17.032C37.3616 16.2554 36.7395 15.6257 35.972 15.6257C35.2046 15.6257 34.5824 16.2554 34.5824 17.032C34.5824 17.8087 35.2046 18.4384 35.972 18.4384Z" fill="#F55403"/>
</g>
<defs>
<clipPath id="clip0_55_133">
<rect width="40" height="42" fill="white"/>
</clipPath>
</defs>
</svg>
