<svg width="339" height="150" viewBox="0 0 339 150" fill="none" xmlns="http://www.w3.org/2000/svg">
<g filter="url(#filter0_i_55_132)">
<path d="M25.7944 108.662C26.0288 108.617 26.153 108.589 26.153 108.589C33.9323 107.389 43.6041 93.3683 43.6041 93.3683C49.6478 84.1454 55.1969 85.4017 55.1969 85.4017C70.4457 86.1522 71.2364 118.383 71.2364 118.383L55.8664 132.382L12.4436 141.463L8.64899 100.573C17.7008 109.35 23.6039 109.115 25.7944 108.662Z" fill="#F55403"/>
<path d="M4.69156 57.8882L46.0977 49.8585L64.3689 58.3964L65.7599 75.9256L60.2651 81.8177C49.0749 75.8083 41.4123 88.1998 41.4123 88.1998C34.4054 97.3901 30.1683 100.847 30.1683 100.847C24.8278 105.195 18.874 101.031 18.874 101.031L7.95647 93.1034L4.69156 57.8882Z" fill="#F55403"/>
<path d="M228.685 115.534L198.089 119.524C190.116 116.823 196.115 109.307 196.115 109.307L215.3 79.2485L192.885 82.6006L191.232 70.6758L222.92 66.4135C222.92 66.4135 229.472 69.2436 224.731 74.8025L203.434 108.93L227.765 105.282L228.684 115.53L228.685 115.534Z" fill="#F55403"/>
<path d="M246.128 71.8611L269.051 64.9302C269.051 64.9302 272.81 64.8439 271.479 59.3943L268.911 45.3056C268.911 45.3056 268.125 41.8491 264.059 42.2547C264.402 42.1799 250.711 41.9764 238.383 48.214C238.383 48.214 234.233 49.4702 234.391 56.002L240.893 92.4311C240.893 92.4311 242.327 96.371 245.718 96.0484L272.909 91.4939C272.909 91.4939 277.768 91.2725 276.635 86.9204L274.474 73.4345L269.663 74.1191L269.803 81.3058L249.925 86.1781C249.925 86.1781 246.684 86.2946 246.391 80.9989C246.391 80.9989 245.259 72.1268 246.132 71.8646L246.128 71.8611Z" fill="#F55403"/>
<path d="M278.789 13.7715C278.789 13.7715 277.951 6.48681 282.172 5.87469L287.837 5.17906C287.837 5.17906 291.313 4.84599 291.981 12.1515L300.657 82.9223C300.657 82.9223 302.025 87.058 297.571 87.0419L292.817 88.2824C292.817 88.2824 290.112 90.2993 288.666 83.742L278.789 13.7715Z" fill="#F55403"/>
<path d="M300.568 96.4054L294.757 97.3533C292.736 97.683 291.343 99.7398 291.645 101.947L292.439 107.741C292.742 109.948 294.626 111.47 296.647 111.141L302.457 110.193C304.479 109.863 305.872 107.806 305.569 105.599L304.776 99.8055C304.473 97.5979 302.589 96.0756 300.568 96.4054Z" fill="#F55403"/>
<path d="M332.54 99.2226L326.73 100.171C324.708 100.5 323.315 102.557 323.618 104.765L324.411 110.558C324.714 112.765 326.598 114.288 328.619 113.958L334.43 113.01C336.451 112.68 337.844 110.623 337.542 108.416L336.748 102.623C336.445 100.415 334.562 98.8929 332.54 99.2226Z" fill="#F55403"/>
<path d="M310.522 15.5532C310.522 15.5532 309.684 8.26855 313.905 7.65643L319.57 6.96079C319.57 6.96079 323.047 6.62772 323.715 13.9333L332.39 84.704C332.39 84.704 333.758 88.8397 329.304 88.8236L324.551 90.0641C324.551 90.0641 321.846 92.081 320.399 85.5237L310.522 15.5532Z" fill="#F55403"/>
<path d="M112.013 127.849C124.298 126.341 133.09 113.812 131.65 99.8652C130.211 85.9184 119.085 75.8351 106.8 77.3436C94.5156 78.8521 85.7237 91.3811 87.1632 105.328C88.6027 119.275 99.7284 129.358 112.013 127.849Z" fill="#F55403"/>
<path d="M103.954 78.4594C108.67 77.1142 114.935 76.9967 121.454 81.7144L121.428 81.7175L122.438 82.4652L122.438 82.4653L122.438 82.4654L122.438 82.4656L122.441 82.4681L122.457 82.4799C122.471 82.4908 122.493 82.5079 122.523 82.5311C122.582 82.5775 122.67 82.6484 122.784 82.7435C123.01 82.9337 123.338 83.2209 123.733 83.6037C124.525 84.3696 125.587 85.5166 126.661 87.0341C128.777 90.0229 130.935 94.4398 131.18 100.214C120.377 108.089 110.958 110.138 103.502 109.737C96.1245 109.34 90.6236 106.541 87.5656 104.528C87.552 104.446 87.5355 104.34 87.5177 104.211C87.4707 103.87 87.4147 103.367 87.3805 102.73C87.3122 101.455 87.3316 99.644 87.6845 97.5143C88.3889 93.2625 90.4224 87.7343 95.7566 82.6396L95.7794 82.6206C95.8028 82.6012 95.8387 82.5718 95.8868 82.5334C95.9828 82.4566 96.1274 82.3438 96.3174 82.2032C96.6974 81.922 97.2586 81.5302 97.9764 81.0932C99.4134 80.2186 101.471 79.1677 103.954 78.4594Z" fill="#FFFFF1" stroke="#D9D9D9"/>
<path d="M160.241 98.704C172.526 97.1955 181.318 84.6665 179.878 70.7197C178.439 56.7729 167.313 46.6897 155.028 48.1982C142.743 49.7067 133.952 62.2357 135.391 76.1825C136.831 90.1293 147.956 100.213 160.241 98.704Z" fill="#F55403"/>
<path d="M152.179 49.3144C156.894 47.9693 163.159 47.8517 169.678 52.5694L169.652 52.5725L170.662 53.3202L170.662 53.3203L170.662 53.3205L170.662 53.3206L170.666 53.3231L170.681 53.3349C170.695 53.3458 170.718 53.3629 170.747 53.3861C170.806 53.4325 170.894 53.5034 171.008 53.5985C171.235 53.7887 171.562 54.0759 171.958 54.4587C172.749 55.2246 173.811 56.3716 174.885 57.8891C177.001 60.8779 179.16 65.2948 179.405 71.0689C168.601 78.9436 159.182 80.9928 151.726 80.5916C144.349 80.1947 138.848 77.3964 135.79 75.3826C135.776 75.3014 135.76 75.1952 135.742 75.0657C135.695 74.7246 135.639 74.2218 135.605 73.5845C135.536 72.3095 135.556 70.499 135.909 68.3693C136.613 64.1175 138.647 58.5893 143.981 53.4947L144.004 53.4756C144.027 53.4562 144.063 53.4268 144.111 53.3884C144.207 53.3116 144.352 53.1988 144.542 53.0582C144.922 52.777 145.483 52.3852 146.201 51.9483C147.638 51.0736 149.695 50.0227 152.179 49.3144Z" fill="#FFFFF1" stroke="#D9D9D9"/>
</g>
<defs>
<filter id="filter0_i_55_132" x="4.69153" y="5.17673" width="332.891" height="140.286" filterUnits="userSpaceOnUse" color-interpolation-filters="sRGB">
<feFlood flood-opacity="0" result="BackgroundImageFix"/>
<feBlend mode="normal" in="SourceGraphic" in2="BackgroundImageFix" result="shape"/>
<feColorMatrix in="SourceAlpha" type="matrix" values="0 0 0 0 0 0 0 0 0 0 0 0 0 0 0 0 0 0 127 0" result="hardAlpha"/>
<feOffset dy="4"/>
<feGaussianBlur stdDeviation="4"/>
<feComposite in2="hardAlpha" operator="arithmetic" k2="-1" k3="1"/>
<feColorMatrix type="matrix" values="0 0 0 0 0 0 0 0 0 0 0 0 0 0 0 0 0 0 0.25 0"/>
<feBlend mode="normal" in2="shape" result="effect1_innerShadow_55_132"/>
</filter>
</defs>
</svg>
